<svg width="72" height="70" viewBox="0 0 72 70" fill="none" xmlns="http://www.w3.org/2000/svg">
<path d="M1 69.5478H71V68.8918H65.3405V58.2358H60.8395V51.5575H56.0593L55.9407 51.2156C53.2191 43.316 45.0195 37.7961 35.9965 37.7961C26.9735 37.7961 18.7809 43.316 16.0593 51.2156L15.9407 51.5575H11.1605V58.2358H6.65946V68.8918H1V69.5478ZM29.6113 68.8499H27.8946V55.591H29.6113V68.8499ZM41.7606 68.8499H30.2673V66.0097H41.7327L41.7606 68.8499ZM41.7606 65.3049H30.2673V62.4647H41.7327L41.7606 65.3049ZM41.7606 61.7669H30.2673V58.9057H41.7327L41.7606 61.7669ZM44.1054 68.8918H42.4166V55.6329H44.1054V68.8918ZM64.6567 68.8918H44.7893V66.0097H64.6567V68.8918ZM64.6567 65.3468H44.7893V62.4647H64.6567V65.3468ZM64.6567 58.9476V61.8087H44.7893V58.9476H64.6567ZM11.8444 52.2414H29.074V51.5435H16.6315L16.8967 50.8457C19.7369 43.4626 27.4131 38.487 35.9965 38.487C44.5799 38.487 52.2631 43.4626 55.1033 50.8736L55.3685 51.5715H42.9191V52.2693H60.1556V58.2637H44.8032V54.8932H41.7327V58.2358H30.2673V54.8932H27.2107V58.2358H11.8583L11.8444 52.2414ZM7.34334 58.9197H27.2107V61.7808H7.34334V58.9197ZM7.34334 62.4647H27.2107V65.3189H7.34334V62.4647ZM7.34334 66.0097H27.2107V68.8918H7.34334V66.0097Z" fill="#48639E" stroke="#48639E" stroke-width="0.6"/>
<path d="M17.1184 53.6439H16.0926V56.833H17.1184V53.6439Z" fill="#24A7D0"/>
<path d="M22.5755 53.6439H21.5497V56.833H22.5755V53.6439Z" fill="#24A7D0"/>
<path d="M50.2764 53.6439H49.2505V56.833H50.2764V53.6439Z" fill="#24A7D0"/>
<path d="M56.368 53.6439H55.3422V56.833H56.368V53.6439Z" fill="#24A7D0"/>
<path d="M36.171 34.6978H41.2792V34H30.6721V34.6978H35.4871V37.0775H25.7593V37.7753H28.3971V40.783H25.7593V41.4808H28.3971V44.4676H25.7593V45.1654H28.3971V54.9351H29.0949V45.1654H42.9191V54.9351H43.6169V45.1654H45.9128V44.4676H43.603V41.4669H45.8989V40.769H43.603V37.7613H45.8989V37.0635H36.171V34.6978ZM42.9191 44.4676H29.081V41.4669H42.9191V44.4676ZM42.9191 37.7404V40.783H29.081V37.7613L42.9191 37.7404Z" fill="#24A7D0"/>
<path d="M17.1184 53.6439H16.0926V56.833H17.1184V53.6439Z" stroke="#24A7D0" stroke-width="0.6"/>
<path d="M22.5755 53.6439H21.5497V56.833H22.5755V53.6439Z" stroke="#24A7D0" stroke-width="0.6"/>
<path d="M50.2764 53.6439H49.2505V56.833H50.2764V53.6439Z" stroke="#24A7D0" stroke-width="0.6"/>
<path d="M56.368 53.6439H55.3422V56.833H56.368V53.6439Z" stroke="#24A7D0" stroke-width="0.6"/>
<path d="M36.171 34.6978H41.2792V34H30.6721V34.6978H35.4871V37.0775H25.7593V37.7753H28.3971V40.783H25.7593V41.4808H28.3971V44.4676H25.7593V45.1654H28.3971V54.9351H29.0949V45.1654H42.9191V54.9351H43.6169V45.1654H45.9128V44.4676H43.603V41.4669H45.8989V40.769H43.603V37.7613H45.8989V37.0635H36.171V34.6978ZM42.9191 44.4676H29.081V41.4669H42.9191V44.4676ZM42.9191 37.7404V40.783H29.081V37.7613L42.9191 37.7404Z" stroke="#24A7D0" stroke-width="0.6"/>
</svg>
